<?xml version="1.0" standalone="no"?><!DOCTYPE svg PUBLIC "-//W3C//DTD SVG 1.1//EN" "http://www.w3.org/Graphics/SVG/1.1/DTD/svg11.dtd"><svg t="1517984802429" class="icon" style="" viewBox="0 0 1024 1024" version="1.1" xmlns="http://www.w3.org/2000/svg" p-id="1965" xmlns:xlink="http://www.w3.org/1999/xlink" width="32" height="32"><defs><style type="text/css"></style></defs><path d="M629.184 593.9392a38.4 38.4 0 0 0 24.4032-28.3072l23.1424-112.192a12.8 12.8 0 0 0-21.7472-11.4688l-44.544 46.1824-60.64-99.7504a38.4 38.4 0 0 0-65.6256 0.0064l-61.4656 101.1456-45.9008-47.584a12.8 12.8 0 0 0-21.7472 11.4752l23.1424 112.192a38.4064 38.4064 0 0 0 29.568 29.7856 38.4 38.4 0 0 0 16.576 3.776l185.3312 0.0448a38.2208 38.2208 0 0 0 19.5008-5.312z m234.4-65.4848a77.3056 77.3056 0 0 1-7.7888 10.6304l-286.3616 328.1472c-27.8912 31.9552-76.4032 35.2512-108.3648 7.36a76.8 76.8 0 0 1-7.36-7.36L167.328 539.0848a76.992 76.992 0 0 1-10.3168-15.1168 76.448 76.448 0 0 1-13.824-43.968 76.8 76.8 0 0 1 5.6576-28.9344l104.128-256A76.8 76.8 0 0 1 324.128 147.2h375.7312a76.8 76.8 0 0 1 71.1424 47.8656l104.128 256c10.9376 26.88 5.5424 56.3456-11.5392 77.3888zM511.936 326.4064a38.4 38.4 0 0 0 38.4-38.4 38.4 38.4 0 1 0-38.4 38.4z" fill="#59AAFF" p-id="1966"></path></svg>