<?xml version="1.0" standalone="no"?><!DOCTYPE svg PUBLIC "-//W3C//DTD SVG 1.1//EN"
  "http://www.w3.org/Graphics/SVG/1.1/DTD/svg11.dtd">
<svg t="1509074606379" class="icon" style="" viewBox="0 0 1024 1024" version="1.1" xmlns="http://www.w3.org/2000/svg"
     p-id="10069"
     width="200" height="200">
  <defs>
    <style type="text/css"></style>
  </defs>
  <path
    d="M819.2 409.6H230.4v-51.2C230.4 217.6 345.6 102.4 486.4 102.4h51.2c104.96 0 194.56 64 235.52 153.6v5.12c7.68 12.8 23.04 17.92 35.84 10.24 12.8-5.12 15.36-20.48 10.24-33.28v-2.56C770.56 128 663.04 51.2 537.6 51.2h-51.2C317.44 51.2 179.2 189.44 179.2 358.4v53.76c-43.52 10.24-76.8 51.2-76.8 99.84v358.4c0 56.32 46.08 102.4 102.4 102.4h614.4c56.32 0 102.4-46.08 102.4-102.4V512c0-56.32-46.08-102.4-102.4-102.4z m51.2 460.8c0 28.16-23.04 51.2-51.2 51.2H204.8c-28.16 0-51.2-23.04-51.2-51.2V512c0-28.16 23.04-51.2 51.2-51.2h614.4c28.16 0 51.2 23.04 51.2 51.2v358.4z"
    fill="#666" p-id="10070"></path>
</svg>