<?xml version="1.0" standalone="no"?><!DOCTYPE svg PUBLIC "-//W3C//DTD SVG 1.1//EN" "http://www.w3.org/Graphics/SVG/1.1/DTD/svg11.dtd"><svg t="1535336936365" class="icon" style="" viewBox="0 0 1024 1024" version="1.1" xmlns="http://www.w3.org/2000/svg" p-id="1054" xmlns:xlink="http://www.w3.org/1999/xlink" width="200" height="200"><defs><style type="text/css"></style></defs><path d="M992 771.2V233.6 128c0-16 3.2-38.4-3.2-54.4-3.2-12.8-12.8-25.6-22.4-32-19.2-12.8-48-9.6-83.2-9.6H92.8c-3.2 0-9.6 0-12.8 3.2-19.2 3.2-32 12.8-38.4 28.8C32 76.8 32 96 32 118.4v825.6c3.2 9.6 6.4 19.2 12.8 25.6 22.4 22.4 51.2 22.4 92.8 22.4h752c38.4 0 60.8 0 80-12.8 22.4-19.2 22.4-44.8 22.4-86.4v-121.6z m-64 160H96V153.6h832v777.6zM864 211.2H160v419.2h704V211.2z m-326.4 288c-12.8 16-35.2 12.8-48 0-35.2-32-67.2-64-102.4-96l-3.2-3.2c-35.2 35.2-73.6 70.4-108.8 102.4-12.8 9.6-35.2 6.4-44.8-6.4-16-22.4 3.2-38.4 16-51.2 28.8-25.6 54.4-51.2 83.2-76.8l28.8-28.8c3.2-3.2 3.2-6.4 6.4-6.4 3.2-3.2 9.6-3.2 16-6.4 12.8 0 22.4 0 28.8 9.6 0 3.2 0 3.2 3.2 3.2 6.4 6.4 12.8 12.8 19.2 16 32 28.8 64 60.8 96 89.6 6.4 16 25.6 35.2 9.6 54.4z m259.2-67.2c-3.2 9.6-9.6 16-19.2 19.2-6.4 3.2-16 3.2-22.4 0-28.8-9.6-19.2-44.8-19.2-80-41.6 38.4-83.2 76.8-121.6 115.2-12.8 12.8-32 38.4-57.6 19.2-9.6-6.4-16-25.6-6.4-38.4 3.2-6.4 9.6-12.8 16-16 41.6-38.4 83.2-80 124.8-118.4-28.8 0-57.6 0-73.6-12.8-12.8-9.6-6.4-32 3.2-41.6 3.2-3.2 9.6-3.2 16-6.4H736c32 0 51.2-3.2 60.8 16 6.4 12.8 3.2 32 3.2 44.8v64c0 12.8 0 25.6-3.2 35.2zM608 691.2H160v60.8h448v-60.8z m192 121.6H160v60.8h640v-60.8z" fill="#19C041" p-id="1055"></path></svg>